<?xml version="1.0" encoding="UTF-8" standalone="no"?>
<svg
   xmlns:dc="http://purl.org/dc/elements/1.1/"
   xmlns:cc="http://creativecommons.org/ns#"
   xmlns:rdf="http://www.w3.org/1999/02/22-rdf-syntax-ns#"
   xmlns:svg="http://www.w3.org/2000/svg"
   xmlns="http://www.w3.org/2000/svg"
   xmlns:sodipodi="http://sodipodi.sourceforge.net/DTD/sodipodi-0.dtd"
   xmlns:inkscape="http://www.inkscape.org/namespaces/inkscape"
   sodipodi:docname="gitex-vscode-logo.svg"
   inkscape:version="1.0.1 (0767f8302a, 2020-10-17)"
   id="svg8"
   version="1.1"
   viewBox="0 0 512 512"
   height="1935.1182"
   width="1935.1182"
   inkscape:export-xdpi="6.3499999"
   inkscape:export-ydpi="6.3499999">
  <defs
     id="defs2">
    <rect
       x="-120.278"
       y="-27.138964"
       width="11.931186"
       height="8.3579406"
       id="rect134" />
  </defs>
  <sodipodi:namedview
     inkscape:window-maximized="1"
     inkscape:window-y="27"
     inkscape:window-x="72"
     inkscape:window-height="1376"
     inkscape:window-width="2488"
     fit-margin-bottom="0"
     fit-margin-right="0"
     fit-margin-left="0"
     fit-margin-top="0"
     showgrid="false"
     inkscape:document-rotation="0"
     inkscape:current-layer="g1075"
     inkscape:document-units="mm"
     inkscape:cy="1196.2201"
     inkscape:cx="-320.3628"
     inkscape:zoom="0.25"
     inkscape:pageshadow="2"
     inkscape:pageopacity="0.0"
     borderopacity="1.0"
     bordercolor="#666666"
     pagecolor="#ffffff"
     id="base"
     units="px" />
  <metadata
     id="metadata5">
    <rdf:RDF>
      <cc:Work
         rdf:about="">
        <dc:format>image/svg+xml</dc:format>
        <dc:type
           rdf:resource="http://purl.org/dc/dcmitype/StillImage" />
        <dc:title />
      </cc:Work>
    </rdf:RDF>
  </metadata>
  <g
     transform="translate(-37.306252,-38.893753)"
     id="layer1"
     inkscape:groupmode="layer"
     inkscape:label="Ebene 1">
    <g
       transform="matrix(3.5446108,0,0,3.5446108,75.468318,40.090254)"
       id="g1075">
      <path
         style="fill:#0000cb;fill-opacity:1;stroke-width:0.943881"
         fill="#f05133"
         d="M 113.19584,49.065135 66.242458,2.1175232 c -2.701577,-2.70403091 -7.086849,-2.70403091 -9.791823,0 l -9.749349,9.7502928 12.366731,12.366731 c 2.874968,-0.970688 6.170246,-0.319862 8.460857,1.971201 2.302504,2.305336 2.948684,5.628741 1.953646,8.513337 l 11.919331,11.919331 c 2.883651,-0.993717 6.210738,-0.351708 8.513336,1.954967 3.219201,3.218258 3.219201,8.433107 0,11.652214 -3.219673,3.220144 -8.434522,3.220144 -11.655989,0 -2.420583,-2.422471 -3.019287,-5.979016 -1.79328,-8.961398 L 65.34983,40.168111 65.348886,69.419933 c 0.784838,0.38852 1.525501,0.907069 2.179516,1.558254 3.218257,3.217879 3.218257,8.431784 0,11.655045 -3.219201,3.217784 -8.436409,3.217784 -11.652213,0 -3.21873,-3.222977 -3.21873,-8.436883 0,-11.655045 0.795455,-0.794041 1.715882,-1.395058 2.69799,-1.797906 V 39.656622 c -0.98258,-0.40115 -1.90192,-0.997683 -2.698556,-1.798094 -2.438045,-2.436158 -3.025234,-6.014411 -1.774875,-9.008307 L 41.909579,16.657163 9.717567,48.848231 c -2.7048798,2.706108 -2.7048798,7.09138 0,9.795599 l 46.950538,46.94771 c 2.703087,2.70403 7.086848,2.70403 9.793712,0 L 113.19526,58.865642 c 2.70403,-2.705352 2.70403,-7.091945 0,-9.796543"
         id="path1061" />
      <g
         aria-label="gitexvscode"
         id="text1079"
         style="font-style:normal;font-weight:normal;font-size:34.9866px;line-height:0;font-family:sans-serif;fill:#000000;fill-opacity:1;stroke:none;stroke-width:0.187428">
        <path
           d="m 11.194419,119.541 v -2.54242 H 5.3618126 c -0.6879484,-0.17946 -1.4656292,-0.29911 -2.7517937,-0.29911 -4.5763525,0 -6.8495734,2.36296 -6.8495734,5.8027 0,2.2134 1.1066997,3.76876 2.5723289,4.48662 -0.7178592,0.65804 -1.3160752,1.22634 -1.8544697,1.79465 -0.5383944,0.5683 -0.8674132,1.16652 -0.8674132,1.82455 0,0.8076 0.3290188,1.55537 1.3160753,1.97412 -1.0468781,0.98705 -1.6450941,1.70491 -1.6450941,3.0509 0,2.36295 2.0638453,3.73885 7.4777002,3.73885 5.2044794,0 8.2254701,-1.9442 8.2254701,-5.38394 0,-3.97814 -3.0509015,-4.1277 -8.2254701,-4.45671 l -2.93125845,-0.17947 0.98705643,-1.58527 c 0.53839442,0.14955 1.40580762,0.2692 2.36295332,0.2692 3.7687609,0 6.3710005,-1.94421 6.3710005,-5.26431 0,-1.37589 -0.5683052,-2.33304 -1.1066996,-3.02099 z m -5.59332,2.81161 c 0,1.55537 -1.1366104,2.54242 -2.8116153,2.54242 -1.97411282,0 -2.78170445,-1.01697 -2.78170445,-2.48259 0,-1.94421 1.22634285,-2.7518 2.87143685,-2.7518 1.7049157,0 2.7218829,0.92724 2.7218829,2.69197 z m -1.645094,11.3362 c 1.4357184,0.0897 2.5723289,0.14955 2.5723289,1.1067 0,1.61518 -2.3629533,1.73482 -4.0977798,1.73482 -2.09375604,0 -3.6192069,-0.35893 -3.6192069,-1.55536 0,-0.59821 0.38884043,-1.1067 0.77768084,-1.58527 z"
           style="font-size:29.9108px"
           id="path138" />
        <path
           d="m 18.74269,111.91374 c 0,-1.70491 -0.987057,-2.63215 -2.721883,-2.63215 -1.704916,0 -2.691972,0.92724 -2.691972,2.63215 0,1.70492 0.987056,2.69198 2.691972,2.69198 1.734826,0 2.721883,-0.98706 2.721883,-2.69198 z m 1.944202,20.66837 v -2.36296 l -1.525451,-0.20937 c -0.448662,-0.0598 -0.478573,-0.11964 -0.478573,-0.59822 v -12.41298 h -6.191536 l -0.329019,2.42278 1.615184,0.5683 c 0.299108,0.0897 0.38884,0.29911 0.38884,0.62813 v 8.79377 c 0,0.44866 -0.05982,0.5384 -0.478573,0.59822 l -1.525451,0.20937 v 2.36296 z"
           style="font-size:29.9108px"
           id="path140" />
        <path
           d="m 32.573631,129.11245 c -0.717859,0.2692 -1.585272,0.47858 -2.422775,0.47858 -1.615183,0 -2.033934,-0.68795 -2.033934,-2.45269 v -7.14868 h 4.456709 v -2.99108 h -4.217423 c -0.239286,0 -0.239286,-0.0897 -0.239286,-0.29911 v -4.24733 h -2.841526 c -0.329019,3.26028 -1.375897,4.57635 -4.008048,4.87546 v 2.66206 h 2.093756 c 0.239287,0 0.239287,0.11964 0.239287,0.29911 v 7.83663 c 0,3.37992 1.345986,4.81564 4.905371,4.81564 1.704916,0 3.589296,-0.56831 4.875461,-1.19643 z"
           style="font-size:29.9108px"
           id="path142" />
        <path
           d="m 47.635121,128.45442 c -2.033935,0.74777 -3.290188,1.01696 -4.456709,1.01696 -2.452686,0 -3.379921,-1.4058 -3.529475,-3.52947 h 9.152705 c 0.02991,-0.59822 0.05982,-1.64509 0.05982,-2.00402 0,-5.17457 -2.632151,-7.23842 -6.580376,-7.23842 -4.09778,0 -7.417879,2.57233 -7.417879,7.98619 0,4.66608 1.974113,8.25538 7.746897,8.25538 2.24331,0 4.277245,-0.62813 6.131715,-1.52545 z m -7.956273,-5.35404 c 0.179465,-2.45268 1.226343,-3.17054 2.512507,-3.17054 1.226343,0 2.213399,0.65804 2.24331,3.17054 z"
           style="font-size:29.9108px;line-height:1.25;fill:#0000cb;fill-opacity:1;stroke-width:0.187428"
           id="path144" />
        <path
           d="m 67.332319,132.58211 v -2.36296 l -1.345986,-0.23928 c -0.35893,-0.0598 -0.478573,-0.23929 -0.777681,-0.5384 l -4.187512,-5.11474 3.649118,-4.03796 c 0.299108,-0.2692 0.38884,-0.44866 0.74777,-0.56831 l 1.375896,-0.2991 v -2.42278 h -6.610287 l -0.299108,2.42278 1.645094,0.23928 -2.452685,2.78171 -2.213399,-2.78171 1.465629,-0.23928 v -2.42278 h -7.956273 l -0.299108,2.42278 1.196432,0.32901 c 0.358929,0.11965 0.448662,0.20938 0.717859,0.50849 l 4.067869,4.84555 -3.948226,4.36697 c -0.269197,0.29911 -0.418751,0.44867 -0.777681,0.50849 l -1.345986,0.2692 v 2.33304 h 7.178593 v -2.36296 l -1.675005,-0.26919 2.482596,-2.96117 2.273221,2.99108 -1.405808,0.2692 v 2.33304 z"
           style="font-size:29.9108px;line-height:1.25;fill:#0000cb;fill-opacity:1;stroke-width:0.187428"
           id="path146" />
        <path
           d="m 75.111166,139.57943 2.967068,-7.78156 c 0.0933,-0.22393 0.223929,-0.26125 0.46652,-0.31723 l 0.671788,-0.11197 v -1.51152 h -4.310645 l -0.24259,1.51152 1.212952,0.14929 -1.978045,5.31833 h -0.130625 l -1.903402,-5.31833 1.194291,-0.14929 v -1.51152 h -5.057077 l -0.298573,1.51152 0.783754,0.16795 c 0.223929,0.056 0.298573,0.0933 0.391877,0.31724 l 2.967067,7.72557 z"
           style="font-size:18.6608px;line-height:1.25;baseline-shift:sub"
           id="path148" />
        <path
           d="m 87.322332,132.91752 v -2.70581 c -0.522503,-0.20527 -1.959384,-0.54117 -3.433588,-0.54117 -2.145992,0 -4.124037,0.9517 -4.124037,3.26564 0,2.44457 2.052688,2.78046 3.620196,3.06037 0.951701,0.16795 1.698133,0.39188 1.698133,1.13831 0,0.69045 -0.559824,0.97036 -1.548847,0.97036 -0.70911,0 -1.212952,-0.11196 -1.436882,-0.1866 -0.167947,-0.0373 -0.205268,-0.11197 -0.223929,-0.27992 l -0.186608,-1.06366 -1.996706,-0.14929 v 2.70582 c 0.335895,0.22393 1.996706,0.67179 3.694839,0.67179 2.369921,0 4.217341,-0.93304 4.217341,-3.20966 0,-2.18331 -1.660812,-2.70582 -3.135015,-3.04171 -1.138309,-0.26125 -2.164653,-0.4292 -2.164653,-1.19429 0,-0.59715 0.522503,-0.9517 1.455543,-0.9517 0.503841,0 0.951701,0.0746 1.194291,0.14928 0.130626,0.0373 0.167947,0.11197 0.186608,0.26125 l 0.186608,0.97037 z"
           style="font-size:18.6608px;line-height:1.25;baseline-shift:sub"
           id="path150" />
        <path
           d="m 96.304299,137.15352 c -0.559824,0.24259 -1.39956,0.54117 -2.3326,0.54117 -1.324917,0 -2.407243,-0.69045 -2.407243,-3.11636 0,-2.18331 0.951701,-2.9484 2.071349,-2.9484 0.373216,0 0.727771,0.056 0.951701,0.13062 0.167947,0.056 0.205268,0.16795 0.223929,0.29857 l 0.22393,1.23162 1.996706,0.0933 v -2.92974 c -0.578485,-0.37322 -1.866081,-0.78376 -3.321623,-0.78376 -2.985728,0 -5.11306,1.69813 -5.11306,5.1877 0,2.83645 1.511525,4.94512 4.88913,4.94512 1.362239,0 2.687156,-0.39188 3.545553,-0.91438 z"
           style="font-size:18.6608px;line-height:1.25;baseline-shift:sub"
           id="path152" />
        <path
           d="m 102.65072,139.80336 c 3.43359,0 5.03842,-2.05269 5.03842,-5.22503 0,-2.8551 -1.34358,-4.90779 -4.79583,-4.90779 -3.414925,0 -5.038414,2.01537 -5.038414,5.11306 0,2.92975 1.380899,5.01976 4.795824,5.01976 z m 0.13063,-1.95939 c -1.25028,0 -1.97805,-0.89572 -1.97805,-3.15367 0,-2.2393 0.82108,-3.00439 2.05269,-3.00439 1.21295,0 1.88474,0.78375 1.88474,2.98573 0,2.3326 -0.74643,3.17233 -1.95938,3.17233 z"
           style="font-size:18.6608px;line-height:1.25;baseline-shift:sub"
           id="path154" />
        <path
           d="m 119.29761,139.57943 v -1.47421 l -0.89571,-0.13062 c -0.27992,-0.0373 -0.29858,-0.0746 -0.29858,-0.35456 v -12.12952 h -3.75082 l -0.20527,1.51153 1.02635,0.35455 c 0.16794,0.056 0.24259,0.18661 0.24259,0.37322 v 2.83644 c -0.70911,-0.5225 -1.54885,-0.89572 -2.63118,-0.89572 -2.07134,0 -3.95609,1.41822 -3.95609,5.16904 0,3.56422 1.41823,4.96378 3.6202,4.96378 1.36224,0 2.27662,-0.52251 3.06037,-1.2876 l 0.13063,0.0187 0.1866,1.04501 z m -3.99341,-2.78046 c -0.50384,0.4292 -1.19429,0.80241 -1.82876,0.80241 -1.17563,0 -1.69813,-1.00768 -1.69813,-2.81778 0,-1.66081 0.54116,-2.94841 1.92206,-2.94841 0.54117,0 1.13831,0.2426 1.60483,0.55983 z"
           style="font-size:18.6608px;line-height:1.25;baseline-shift:sub"
           id="path156" />
        <path
           d="m 127.90987,137.00424 c -1.26894,0.46652 -2.05269,0.63446 -2.78046,0.63446 -1.53019,0 -2.10867,-0.87705 -2.20198,-2.20197 h 5.71021 c 0.0187,-0.37322 0.0373,-1.02634 0.0373,-1.25027 0,-3.22832 -1.64215,-4.51592 -4.10538,-4.51592 -2.55653,0 -4.62788,1.60483 -4.62788,4.98244 0,2.91108 1.23162,5.15038 4.83315,5.15038 1.39956,0 2.6685,-0.39188 3.82546,-0.9517 z m -4.96378,-3.34029 c 0.11197,-1.53018 0.76509,-1.97804 1.56751,-1.97804 0.76509,0 1.3809,0.41054 1.39956,1.97804 z"
           style="font-size:18.6608px;line-height:1.25;baseline-shift:sub"
           id="path158" />
      </g>
      <text
         xml:space="preserve"
         id="text132"
         style="fill:black;fill-opacity:1;line-height:1.25;stroke:none;font-family:sans-serif;font-style:normal;font-weight:normal;font-size:2.98575328px;white-space:pre;shape-inside:url(#rect134);" />
    </g>
  </g>
</svg>
